<svg xmlns="http://www.w3.org/2000/svg" viewBox="0 0 216 12" width="216" height="12" shape-rendering="crispEdges" xmlns:c2pa="http://c2pa.org/manifest"><metadata><c2pa:manifest>AAAWgmp1bWIAAAAeanVtZGMycGEAEQAQgAAAqgA4m3EDYzJwYQAAABZcanVtYgAAAEdqdW1kYzJtYQARABCAAACqADibcQN1cm46YzJwYTpkNTczMWQ3Yi04MmM1LTQxYzMtOTI2ZS1iOGNmYzMzNDlhY2EAAAADl2p1bWIAAAApanVtZGMyYXMAEQAQgAAAqgA4m3EDYzJwYS5hc3NlcnRpb25zAAAAALxqdW1iAAAARGp1bWRjYm9yABEAEIAAAKoAOJtxE2MycGEuaW5ncmVkaWVudC52MwAAAAAYYzJzaGl6AKU233wjpdNWXPjB15wAAABwY2JvcqNpZGM6Zm9ybWF0bWltYWdlL3N2Zyt4bWxqaW5zdGFuY2VJRHgseG1wOmlpZDo2YmUzYzdkMy1kZTdjLTQ2YjktYTQ4ZS1hMzE4OWQxYzZjOTVscmVsYXRpb25zaGlwaHBhcmVudE9mAAAB4mp1bWIAAABBanVtZGNib3IAEQAQgAAAqgA4m3ETYzJwYS5hY3Rpb25zLnYyAAAAABhjMnNotJm1GfudBraxV6/cEhEX4QAAAZljYm9yomdhY3Rpb25zgqJmYWN0aW9ua2MycGEub3BlbmVkanBhcmFtZXRlcnOha2luZ3JlZGllbnRzgaJjdXJseC1zZWxmI2p1bWJmPWMycGEuYXNzZXJ0aW9ucy9jMnBhLmluZ3JlZGllbnQudjNkaGFzaFggStUF5sdOpb0Cqdh5JAzbGO08YATcLsHwyEwWLl0eQwOkZmFjdGlvbngdY29tLmFudGhyb3BpYy5jbGF1ZGUucHJvdmlkZWRqcGFyYW1ldGVyc6F4H2NvbS5hbnRocm9waWMub3JpZ2luLWNvbmZpZGVuY2VndW5rbm93bmtkZXNjcmlwdGlvbnhmQ2xhdWRlIHByb3ZpZGVkIHRoaXMgZmlsZSBhdCB0aGUgcmVxdWVzdCBvZiBhIHVzZXIgYW5kIG1heSBoYXZlIGNyZWF0ZWQgb3IgbW9kaWZpZWQgdGhlIGZpbGUgY29udGVudHMubXNvZnR3YXJlQWdlbnShZG5hbWVmQ2xhdWRlcmFsbEFjdGlvbnNJbmNsdWRlZPUAAADIanVtYgAAAEBqdW1kY2JvcgARABCAAACqADibcRNjMnBhLmhhc2guZGF0YQAAAAAYYzJzaB8UPmLUPMkCD3NB/GbYcAQAAACAY2JvcqVjYWxnZnNoYTI1NmNwYWRNAAAAAAAAAAAAAAAAAGRoYXNoWCABOx+C81Hukar1B3HRN1/TrAlXggiIETN30crwGFQdqWRuYW1lbmp1bWJmIG1hbmlmZXN0amV4Y2x1c2lvbnOBomVzdGFydBixZmxlbmd0aBkeBAAAAj5qdW1iAAAAJ2p1bWRjMmNsABEAEIAAAKoAOJtxA2MycGEuY2xhaW0udjIAAAACD2Nib3KlY2FsZ2ZzaGEyNTZpc2lnbmF0dXJleE1zZWxmI2p1bWJmPS9jMnBhL3VybjpjMnBhOmQ1NzMxZDdiLTgyYzUtNDFjMy05MjZlLWI4Y2ZjMzM0OWFjYS9jMnBhLnNpZ25hdHVyZWppbnN0YW5jZUlEeCx4bXA6aWlkOjhlZGE1MTI3LWMxM2QtNGMxZS04YWZjLWVhMjQ5OTNhNThiMXJjcmVhdGVkX2Fzc2VydGlvbnODomN1cmx4LXNlbGYjanVtYmY9YzJwYS5hc3NlcnRpb25zL2MycGEuaW5ncmVkaWVudC52M2RoYXNoWCBK1QXmx06lvQKp2HkkDNsY7TxgBNwuwfDITBYuXR5DA6JjdXJseCpzZWxmI2p1bWJmPWMycGEuYXNzZXJ0aW9ucy9jMnBhLmFjdGlvbnMudjJkaGFzaFggXQ2rASJiwlMq6LJvMiYUrLKou+bLCH6KvvtXv4qV5I6iY3VybHgpc2VsZiNqdW1iZj1jMnBhLmFzc2VydGlvbnMvYzJwYS5oYXNoLmRhdGFkaGFzaFggVSA40hAyiKEK7x2jkfkgnOuTP6RU6C2xHCFuX6/4uoF0Y2xhaW1fZ2VuZXJhdG9yX2luZm+jZG5hbWVvQW50aHJvcGljIEZpbGVzZ3ZlcnNpb25lMS4wLjBrc3BlY1ZlcnNpb25lMi40LjAAABA4anVtYgAAAChqdW1kYzJjcwARABCAAACqADibcQNjMnBhLnNpZ25hdHVyZQAAABAIY2JvctKEWQISogEmGCFZAgowggIGMIIBjaADAgECAhRA5aAK7sI50L64g/oGQgU9Z1UTADAKBggqhkjOPQQDAzBJMRcwFQYDVQQKEw5BbnRocm9waWMsIFBCQzEuMCwGA1UEAxMlQW50aHJvcGljIENvbnRlbnQgQ3JlZGVudGlhbHMgUm9vdCBDQTAeFw0yNjA4MDcxODQzNTZaFw0yODA4MDYxOTQzNTZaMEQxFzAVBgNVBAoTDkFudGhyb3BpYywgUEJDMSkwJwYDVQQDEyBBbnRocm9waWMgQ2xhdWRlIENvbnRlbnQgU2lnbmluZzBZMBMGByqGSM49AgEGCCqGSM49AwEHA0IABJh6CmvLUBgFFNU0vUKlOVtE6djd17L5SuwX0LemFisBM3dkd/3cyjxFA3Qo5S46fX0/ihY0VZ7mfb9KF703t5OjWDBWMA4GA1UdDwEB/wQEAwIHgDAVBgNVHSUEDjAMBgorBgEEAYPoXgIBMAwGA1UdEwEB/wQCMAAwHwYDVR0jBBgwFoAUzlHiBIFOZFsj+OPEz5o+nMHXXMIwCgYIKoZIzj0EAwMDZwAwZAIwMXMdFJ4BetLLVY7ORuE9noqbbAZOZn/aArXyTwFAZfKrPzxF2vPoJNf1+UCdg1XGAjBwX1zd9WGqYkqmL5SFqw1QySjr1zJfpJM9+1rdDwSPLMOPOjKuiXjoU/pUUeG9RwmhY3BhZFkNngAAAAAAAAAAAAAAAAAAAAAAAAAAAAAAAAAAAAAAAAAAAAAAAAAAAAAAAAAAAAAAAAAAAAAAAAAAAAAAAAAAAAAAAAAAAAAAAAAAAAAAAAAAAAAAAAAAAAAAAAAAAAAAAAAAAAAAAAAAAAAAAAAAAAAAAAAAAAAAAAAAAAAAAAAAAAAAAAAAAAAAAAAAAAAAAAAAAAAAAAAAAAAAAAAAAAAAAAAAAAAAAAAAAAAAAAAAAAAAAAAAAAAAAAAAAAAAAAAAAAAAAAAAAAAAAAAAAAAAAAAAAAAAAAAAAAAAAAAAAAAAAAAAAAAAAAAAAAAAAAAAAAAAAAAAAAAAAAAAAAAAAAAAAAAAAAAAAAAAAAAAAAAAAAAAAAAAAAAAAAAAAAAAAAAAAAAAAAAAAAAAAAAAAAAAAAAAAAAAAAAAAAAAAAAAAAAAAAAAAAAAAAAAAAAAAAAAAAAAAAAAAAAAAAAAAAAAAAAAAAAAAAAAAAAAAAAAAAAAAAAAAAAAAAAAAAAAAAAAAAAAAAAAAAAAAAAAAAAAAAAAAAAAAAAAAAAAAAAAAAAAAAAAAAAAAAAAAAAAAAAAAAAAAAAAAAAAAAAAAAAAAAAAAAAAAAAAAAAAAAAAAAAAAAAAAAAAAAAAAAAAAAAAAAAAAAAAAAAAAAAAAAAAAAAAAAAAAAAAAAAAAAAAAAAAAAAAAAAAAAAAAAAAAAAAAAAAAAAAAAAAAAAAAAAAAAAAAAAAAAAAAAAAAAAAAAAAAAAAAAAAAAAAAAAAAAAAAAAAAAAAAAAAAAAAAAAAAAAAAAAAAAAAAAAAAAAAAAAAAAAAAAAAAAAAAAAAAAAAAAAAAAAAAAAAAAAAAAAAAAAAAAAAAAAAAAAAAAAAAAAAAAAAAAAAAAAAAAAAAAAAAAAAAAAAAAAAAAAAAAAAAAAAAAAAAAAAAAAAAAAAAAAAAAAAAAAAAAAAAAAAAAAAAAAAAAAAAAAAAAAAAAAAAAAAAAAAAAAAAAAAAAAAAAAAAAAAAAAAAAAAAAAAAAAAAAAAAAAAAAAAAAAAAAAAAAAAAAAAAAAAAAAAAAAAAAAAAAAAAAAAAAAAAAAAAAAAAAAAAAAAAAAAAAAAAAAAAAAAAAAAAAAAAAAAAAAAAAAAAAAAAAAAAAAAAAAAAAAAAAAAAAAAAAAAAAAAAAAAAAAAAAAAAAAAAAAAAAAAAAAAAAAAAAAAAAAAAAAAAAAAAAAAAAAAAAAAAAAAAAAAAAAAAAAAAAAAAAAAAAAAAAAAAAAAAAAAAAAAAAAAAAAAAAAAAAAAAAAAAAAAAAAAAAAAAAAAAAAAAAAAAAAAAAAAAAAAAAAAAAAAAAAAAAAAAAAAAAAAAAAAAAAAAAAAAAAAAAAAAAAAAAAAAAAAAAAAAAAAAAAAAAAAAAAAAAAAAAAAAAAAAAAAAAAAAAAAAAAAAAAAAAAAAAAAAAAAAAAAAAAAAAAAAAAAAAAAAAAAAAAAAAAAAAAAAAAAAAAAAAAAAAAAAAAAAAAAAAAAAAAAAAAAAAAAAAAAAAAAAAAAAAAAAAAAAAAAAAAAAAAAAAAAAAAAAAAAAAAAAAAAAAAAAAAAAAAAAAAAAAAAAAAAAAAAAAAAAAAAAAAAAAAAAAAAAAAAAAAAAAAAAAAAAAAAAAAAAAAAAAAAAAAAAAAAAAAAAAAAAAAAAAAAAAAAAAAAAAAAAAAAAAAAAAAAAAAAAAAAAAAAAAAAAAAAAAAAAAAAAAAAAAAAAAAAAAAAAAAAAAAAAAAAAAAAAAAAAAAAAAAAAAAAAAAAAAAAAAAAAAAAAAAAAAAAAAAAAAAAAAAAAAAAAAAAAAAAAAAAAAAAAAAAAAAAAAAAAAAAAAAAAAAAAAAAAAAAAAAAAAAAAAAAAAAAAAAAAAAAAAAAAAAAAAAAAAAAAAAAAAAAAAAAAAAAAAAAAAAAAAAAAAAAAAAAAAAAAAAAAAAAAAAAAAAAAAAAAAAAAAAAAAAAAAAAAAAAAAAAAAAAAAAAAAAAAAAAAAAAAAAAAAAAAAAAAAAAAAAAAAAAAAAAAAAAAAAAAAAAAAAAAAAAAAAAAAAAAAAAAAAAAAAAAAAAAAAAAAAAAAAAAAAAAAAAAAAAAAAAAAAAAAAAAAAAAAAAAAAAAAAAAAAAAAAAAAAAAAAAAAAAAAAAAAAAAAAAAAAAAAAAAAAAAAAAAAAAAAAAAAAAAAAAAAAAAAAAAAAAAAAAAAAAAAAAAAAAAAAAAAAAAAAAAAAAAAAAAAAAAAAAAAAAAAAAAAAAAAAAAAAAAAAAAAAAAAAAAAAAAAAAAAAAAAAAAAAAAAAAAAAAAAAAAAAAAAAAAAAAAAAAAAAAAAAAAAAAAAAAAAAAAAAAAAAAAAAAAAAAAAAAAAAAAAAAAAAAAAAAAAAAAAAAAAAAAAAAAAAAAAAAAAAAAAAAAAAAAAAAAAAAAAAAAAAAAAAAAAAAAAAAAAAAAAAAAAAAAAAAAAAAAAAAAAAAAAAAAAAAAAAAAAAAAAAAAAAAAAAAAAAAAAAAAAAAAAAAAAAAAAAAAAAAAAAAAAAAAAAAAAAAAAAAAAAAAAAAAAAAAAAAAAAAAAAAAAAAAAAAAAAAAAAAAAAAAAAAAAAAAAAAAAAAAAAAAAAAAAAAAAAAAAAAAAAAAAAAAAAAAAAAAAAAAAAAAAAAAAAAAAAAAAAAAAAAAAAAAAAAAAAAAAAAAAAAAAAAAAAAAAAAAAAAAAAAAAAAAAAAAAAAAAAAAAAAAAAAAAAAAAAAAAAAAAAAAAAAAAAAAAAAAAAAAAAAAAAAAAAAAAAAAAAAAAAAAAAAAAAAAAAAAAAAAAAAAAAAAAAAAAAAAAAAAAAAAAAAAAAAAAAAAAAAAAAAAAAAAAAAAAAAAAAAAAAAAAAAAAAAAAAAAAAAAAAAAAAAAAAAAAAAAAAAAAAAAAAAAAAAAAAAAAAAAAAAAAAAAAAAAAAAAAAAAAAAAAAAAAAAAAAAAAAAAAAAAAAAAAAAAAAAAAAAAAAAAAAAAAAAAAAAAAAAAAAAAAAAAAAAAAAAAAAAAAAAAAAAAAAAAAAAAAAAAAAAAAAAAAAAAAAAAAAAAAAAAAAAAAAAAAAAAAAAAAAAAAAAAAAAAAAAAAAAAAAAAAAAAAAAAAAAAAAAAAAAAAAAAAAAAAAAAAAAAAAAAAAAAAAAAAAAAAAAAAAAAAAAAAAAAAAAAAAAAAAAAAAAAAAAAAAAAAAAAAAAAAAAAAAAAAAAAAAAAAAAAAAAAAAAAAAAAAAAAAAAAAAAAAAAAAAAAAAAAAAAAAAAAAAAAAAAAAAAAAAAAAAAAAAAAAAAAAAAAAAAAAAAAAAAAAAAAAAAAAAAAAAAAAAAAAAAAAAAAAAAAAAAAAAAAAAAAAAAAAAAAAAAAAAAAAAAAAAAAAAAAAAAAAAAAAAAAAAAAAAAAAAAAAAAAAAAAAAAAAAAAAAAAAAAAAAAAAAAAAAAAAAAAAAAAAAAAAAAAAAAAAAAAAAAAAAAAAAAAAAAAAAAAAAAAAAAAAAAAAAAAAAAAAAAAAAAAAAAAAAAAAAAAAAAAAAAAAAAAAAAAAAAAAAAAAAAAAAAAAAAAAAAAAAAAAAAAAAAAAAAAAAAAAAAAAAAAAAAAAAAAAAAAAAAAAAAAAAAAAAAAAAAAAAAAAAAAAAAAAAAAAAAAAAAAAAAAAAAAAAAAAAAAAAAAAAAAAAAAAAAAAAAAAAAAAAAAAAAAAAAAAAAAAAAAAAAAAAAAAAAAAAAAAAAAAAAAAAAAAAAAAAAAAAAAAAAAAAAAAAAAAAAAAAAAAAAAAAAAAAAAAAAAAAAAAAAAAAAAAAAAAAAAAAAAAAAAAAAAAAAAAAAAAAAAAAAAAAAAAAAAAAAAAAAAAAAAAAAAAAAAAAAAAAAAAAAAAAAAAAAAAAAAAAAAAAAAAAAAAAAAAAAAAAAAAAAAAAAAAAAAAAAAAAAAAAAAAAAAAAAAAAAAAAAAAAAAAAAAAAAAAAAAAAAAAAAAAAAAAAAAAAAAAAAAAAAAAAAAAAAAAAAAAAAAAAAAAAAAAAAAAAAAAAAAAAAAAAAAAAAAAAAAAAAAAAAAAAAAAAAAAAAAAAAAAAAAAAAAAAAAAAAAAAAAAAAAAAAAAAAAAAAAAAAAAAAAAAAAAAAAAAAAAAAAAAAAAAAAAAAAAAAAAAAAAAAAAAAAAAAAAAAAAAAAAAAAAAAAAAAAAAAAAAAAAAAAAAAAAAAAAAAAAAAAAAAAAAAAAAAAAAAAAAAAAAAAAAAAAAAAAAAAAAAAAAAAAAAAAAAAAAAAAAAAAAAAAAAAAAAAAAAAAAAAAAAAAAAAAAAAAAAAAAAAAAAAAAAAAAAAAAAAAAAAAAAAAAAAAAAAAAAAAAAAAAAAAAAAAAAAAAAAAAAAAAAAAAAAAAAAAAAAAAAAAAAAAAAAAAAAAAAAAAAAAAAAAAAAAAAAAAAAAAAAAAAAAAAAAAAAAAAAAAAAAAAAAAAAAAAAAAAAAAAAAAAAAAAAAAAAAAAAAAAAAAAAAAAAAAAAAAAAAAAAAAAAAAAAAAAAAAAAAAAAAAAAAAAAAAAAAAAAAAAAAAAAAAAAAAAAAAAAAAAAAAAAAAAAAAAAAAAAAAAAAAAAAAAAAAAAAAAAAAAAAAAAAAAAPZYQAStbBH//RdWhzDu+KZEkrTqow1B2/2PdKmZXkIIpLbllRhnAKu8AXqmqooBDUi3UBKlFyyAB8sWTXE/bfhQgYI=</c2pa:manifest></metadata>
<g transform="translate(0 0)"><rect x="7" y="1" width="6" height="1" fill="#C77C36"></rect><rect x="6" y="2" width="8" height="1" fill="#C77C36"></rect><rect x="5" y="3" width="1" height="1" fill="#C77C36"></rect><rect x="8" y="3" width="2" height="1" fill="#C77C36"></rect><rect x="12" y="3" width="2" height="1" fill="#C77C36"></rect><rect x="4" y="4" width="2" height="1" fill="#C77C36"></rect><rect x="8" y="4" width="2" height="1" fill="#C77C36"></rect><rect x="12" y="4" width="2" height="1" fill="#C77C36"></rect><rect x="6" y="3" width="2" height="2" fill="#2B1608"></rect><rect x="10" y="3" width="2" height="2" fill="#2B1608"></rect><rect x="4" y="5" width="10" height="1" fill="#C77C36"></rect><rect x="4" y="6" width="10" height="3" fill="#C77C36"></rect><rect x="4" y="9" width="10" height="1" fill="#A9651F"></rect><rect x="2" y="5" width="2" height="1" fill="#C77C36"></rect><rect x="14" y="5" width="2" height="1" fill="#C77C36"></rect><rect x="5" y="10" width="2" height="1" fill="#C77C36"></rect><rect x="4" y="11" width="3" height="1" fill="#A9651F"></rect><rect x="11" y="10" width="2" height="1" fill="#C77C36"></rect><rect x="11" y="11" width="3" height="1" fill="#A9651F"></rect></g>
<g transform="translate(18 0)"><rect x="7" y="2" width="6" height="1" fill="#C77C36"></rect><rect x="6" y="3" width="8" height="1" fill="#C77C36"></rect><rect x="5" y="4" width="1" height="1" fill="#C77C36"></rect><rect x="8" y="4" width="2" height="1" fill="#C77C36"></rect><rect x="12" y="4" width="2" height="1" fill="#C77C36"></rect><rect x="4" y="5" width="2" height="1" fill="#C77C36"></rect><rect x="8" y="5" width="2" height="1" fill="#C77C36"></rect><rect x="12" y="5" width="2" height="1" fill="#C77C36"></rect><rect x="6" y="4" width="2" height="2" fill="#2B1608"></rect><rect x="10" y="4" width="2" height="2" fill="#2B1608"></rect><rect x="4" y="6" width="10" height="1" fill="#C77C36"></rect><rect x="4" y="7" width="10" height="3" fill="#C77C36"></rect><rect x="4" y="10" width="10" height="1" fill="#A9651F"></rect><rect x="2" y="6" width="2" height="2" fill="#C77C36"></rect><rect x="14" y="6" width="2" height="2" fill="#C77C36"></rect><rect x="4" y="11" width="3" height="1" fill="#A9651F"></rect><rect x="11" y="11" width="3" height="1" fill="#A9651F"></rect></g>
<g transform="translate(36 0)"><rect x="9" y="1" width="6" height="1" fill="#C77C36"></rect><rect x="8" y="2" width="8" height="1" fill="#C77C36"></rect><rect x="7" y="3" width="1" height="1" fill="#C77C36"></rect><rect x="10" y="3" width="2" height="1" fill="#C77C36"></rect><rect x="14" y="3" width="2" height="1" fill="#C77C36"></rect><rect x="6" y="4" width="2" height="1" fill="#C77C36"></rect><rect x="10" y="4" width="2" height="1" fill="#C77C36"></rect><rect x="14" y="4" width="2" height="1" fill="#C77C36"></rect><rect x="8" y="3" width="2" height="2" fill="#2B1608"></rect><rect x="12" y="3" width="2" height="2" fill="#2B1608"></rect><rect x="5" y="5" width="10" height="1" fill="#C77C36"></rect><rect x="5" y="6" width="10" height="3" fill="#C77C36"></rect><rect x="5" y="9" width="10" height="1" fill="#A9651F"></rect><rect x="3" y="5" width="2" height="2" fill="#C77C36"></rect><rect x="15" y="3" width="2" height="3" fill="#C77C36"></rect><rect x="5" y="10" width="2" height="1" fill="#C77C36"></rect><rect x="4" y="11" width="3" height="1" fill="#A9651F"></rect><rect x="11" y="10" width="2" height="1" fill="#C77C36"></rect><rect x="11" y="11" width="3" height="1" fill="#A9651F"></rect></g>
<g transform="translate(54 0)"><rect x="9" y="0" width="6" height="1" fill="#C77C36"></rect><rect x="8" y="1" width="8" height="1" fill="#C77C36"></rect><rect x="7" y="2" width="1" height="1" fill="#C77C36"></rect><rect x="10" y="2" width="2" height="1" fill="#C77C36"></rect><rect x="14" y="2" width="2" height="1" fill="#C77C36"></rect><rect x="6" y="3" width="2" height="1" fill="#C77C36"></rect><rect x="10" y="3" width="2" height="1" fill="#C77C36"></rect><rect x="14" y="3" width="2" height="1" fill="#C77C36"></rect><rect x="8" y="3" width="2" height="1" fill="#2B1608"></rect><rect x="12" y="3" width="2" height="1" fill="#2B1608"></rect><rect x="5" y="4" width="10" height="1" fill="#C77C36"></rect><rect x="5" y="5" width="10" height="3" fill="#C77C36"></rect><rect x="5" y="8" width="10" height="1" fill="#A9651F"></rect><rect x="3" y="2" width="2" height="3" fill="#C77C36"></rect><rect x="15" y="2" width="2" height="3" fill="#C77C36"></rect><rect x="5" y="9" width="2" height="1" fill="#C77C36"></rect><rect x="4" y="10" width="3" height="1" fill="#A9651F"></rect><rect x="11" y="9" width="2" height="1" fill="#C77C36"></rect><rect x="11" y="10" width="3" height="1" fill="#A9651F"></rect></g>
<g transform="translate(72 0)"><rect x="7" y="2" width="6" height="1" fill="#C77C36"></rect><rect x="6" y="3" width="8" height="1" fill="#C77C36"></rect><rect x="5" y="4" width="1" height="1" fill="#C77C36"></rect><rect x="8" y="4" width="2" height="1" fill="#C77C36"></rect><rect x="12" y="4" width="2" height="1" fill="#C77C36"></rect><rect x="4" y="5" width="2" height="1" fill="#C77C36"></rect><rect x="8" y="5" width="2" height="1" fill="#C77C36"></rect><rect x="12" y="5" width="2" height="1" fill="#C77C36"></rect><rect x="6" y="4" width="2" height="2" fill="#2B1608"></rect><rect x="10" y="4" width="2" height="2" fill="#2B1608"></rect><rect x="4" y="6" width="10" height="1" fill="#C77C36"></rect><rect x="4" y="7" width="10" height="3" fill="#C77C36"></rect><rect x="4" y="10" width="10" height="1" fill="#A9651F"></rect><rect x="2" y="6" width="2" height="2" fill="#C77C36"></rect><rect x="14" y="6" width="2" height="2" fill="#C77C36"></rect><rect x="4" y="11" width="3" height="1" fill="#A9651F"></rect><rect x="11" y="11" width="3" height="1" fill="#A9651F"></rect></g>
<g transform="translate(90 0)"><rect x="5" y="1" width="6" height="1" fill="#C77C36"></rect><rect x="4" y="2" width="8" height="1" fill="#C77C36"></rect><rect x="3" y="3" width="1" height="1" fill="#C77C36"></rect><rect x="6" y="3" width="2" height="1" fill="#C77C36"></rect><rect x="10" y="3" width="2" height="1" fill="#C77C36"></rect><rect x="2" y="4" width="2" height="1" fill="#C77C36"></rect><rect x="6" y="4" width="2" height="1" fill="#C77C36"></rect><rect x="10" y="4" width="2" height="1" fill="#C77C36"></rect><rect x="4" y="3" width="2" height="2" fill="#2B1608"></rect><rect x="8" y="3" width="2" height="2" fill="#2B1608"></rect><rect x="3" y="5" width="10" height="1" fill="#C77C36"></rect><rect x="3" y="6" width="10" height="3" fill="#C77C36"></rect><rect x="3" y="9" width="10" height="1" fill="#A9651F"></rect><rect x="1" y="3" width="2" height="3" fill="#C77C36"></rect><rect x="13" y="5" width="2" height="2" fill="#C77C36"></rect><rect x="5" y="10" width="2" height="1" fill="#C77C36"></rect><rect x="4" y="11" width="3" height="1" fill="#A9651F"></rect><rect x="11" y="10" width="2" height="1" fill="#C77C36"></rect><rect x="11" y="11" width="3" height="1" fill="#A9651F"></rect></g>
<g transform="translate(108 0)"><rect x="5" y="0" width="6" height="1" fill="#C77C36"></rect><rect x="4" y="1" width="8" height="1" fill="#C77C36"></rect><rect x="3" y="2" width="1" height="1" fill="#C77C36"></rect><rect x="6" y="2" width="2" height="1" fill="#C77C36"></rect><rect x="10" y="2" width="2" height="1" fill="#C77C36"></rect><rect x="2" y="3" width="2" height="1" fill="#C77C36"></rect><rect x="6" y="3" width="2" height="1" fill="#C77C36"></rect><rect x="10" y="3" width="2" height="1" fill="#C77C36"></rect><rect x="4" y="3" width="2" height="1" fill="#2B1608"></rect><rect x="8" y="3" width="2" height="1" fill="#2B1608"></rect><rect x="3" y="4" width="10" height="1" fill="#C77C36"></rect><rect x="3" y="5" width="10" height="3" fill="#C77C36"></rect><rect x="3" y="8" width="10" height="1" fill="#A9651F"></rect><rect x="1" y="2" width="2" height="3" fill="#C77C36"></rect><rect x="13" y="2" width="2" height="3" fill="#C77C36"></rect><rect x="5" y="9" width="2" height="1" fill="#C77C36"></rect><rect x="4" y="10" width="3" height="1" fill="#A9651F"></rect><rect x="13" y="8" width="3" height="1" fill="#A9651F"></rect></g>
<g transform="translate(126 0)"><rect x="7" y="2" width="6" height="1" fill="#C77C36"></rect><rect x="6" y="3" width="8" height="1" fill="#C77C36"></rect><rect x="5" y="4" width="1" height="1" fill="#C77C36"></rect><rect x="8" y="4" width="2" height="1" fill="#C77C36"></rect><rect x="12" y="4" width="2" height="1" fill="#C77C36"></rect><rect x="4" y="5" width="2" height="1" fill="#C77C36"></rect><rect x="8" y="5" width="2" height="1" fill="#C77C36"></rect><rect x="12" y="5" width="2" height="1" fill="#C77C36"></rect><rect x="6" y="4" width="2" height="2" fill="#2B1608"></rect><rect x="10" y="4" width="2" height="2" fill="#2B1608"></rect><rect x="4" y="6" width="10" height="1" fill="#C77C36"></rect><rect x="4" y="7" width="10" height="3" fill="#C77C36"></rect><rect x="4" y="10" width="10" height="1" fill="#A9651F"></rect><rect x="2" y="5" width="2" height="2" fill="#C77C36"></rect><rect x="14" y="5" width="2" height="2" fill="#C77C36"></rect><rect x="4" y="11" width="3" height="1" fill="#A9651F"></rect><rect x="11" y="11" width="3" height="1" fill="#A9651F"></rect></g>
<g transform="translate(144 0)"><rect x="8" y="1" width="6" height="1" fill="#C77C36"></rect><rect x="7" y="2" width="8" height="1" fill="#C77C36"></rect><rect x="6" y="3" width="1" height="1" fill="#C77C36"></rect><rect x="9" y="3" width="2" height="1" fill="#C77C36"></rect><rect x="13" y="3" width="2" height="1" fill="#C77C36"></rect><rect x="5" y="4" width="2" height="1" fill="#C77C36"></rect><rect x="9" y="4" width="2" height="1" fill="#C77C36"></rect><rect x="13" y="4" width="2" height="1" fill="#C77C36"></rect><rect x="7" y="3" width="2" height="2" fill="#2B1608"></rect><rect x="11" y="3" width="2" height="2" fill="#2B1608"></rect><rect x="5" y="5" width="10" height="1" fill="#C77C36"></rect><rect x="5" y="6" width="10" height="3" fill="#C77C36"></rect><rect x="5" y="9" width="10" height="1" fill="#A9651F"></rect><rect x="3" y="4" width="2" height="2" fill="#C77C36"></rect><rect x="15" y="4" width="2" height="2" fill="#C77C36"></rect><rect x="2" y="9" width="3" height="1" fill="#A9651F"></rect><rect x="11" y="10" width="2" height="1" fill="#C77C36"></rect><rect x="11" y="11" width="3" height="1" fill="#A9651F"></rect></g>
<g transform="translate(162 0)"><rect x="7" y="0" width="6" height="1" fill="#C77C36"></rect><rect x="6" y="1" width="8" height="1" fill="#C77C36"></rect><rect x="5" y="2" width="1" height="1" fill="#C77C36"></rect><rect x="8" y="2" width="2" height="1" fill="#C77C36"></rect><rect x="12" y="2" width="2" height="1" fill="#C77C36"></rect><rect x="4" y="3" width="2" height="1" fill="#C77C36"></rect><rect x="8" y="3" width="2" height="1" fill="#C77C36"></rect><rect x="12" y="3" width="2" height="1" fill="#C77C36"></rect><rect x="6" y="3" width="2" height="1" fill="#2B1608"></rect><rect x="10" y="3" width="2" height="1" fill="#2B1608"></rect><rect x="4" y="4" width="10" height="1" fill="#C77C36"></rect><rect x="4" y="5" width="10" height="3" fill="#C77C36"></rect><rect x="4" y="8" width="10" height="1" fill="#A9651F"></rect><rect x="2" y="2" width="2" height="3" fill="#C77C36"></rect><rect x="14" y="2" width="2" height="3" fill="#C77C36"></rect><rect x="5" y="9" width="2" height="1" fill="#C77C36"></rect><rect x="4" y="10" width="3" height="1" fill="#A9651F"></rect><rect x="11" y="9" width="2" height="1" fill="#C77C36"></rect><rect x="11" y="10" width="3" height="1" fill="#A9651F"></rect></g>
<g transform="translate(180 0)"><rect x="6" y="1" width="6" height="1" fill="#C77C36"></rect><rect x="5" y="2" width="8" height="1" fill="#C77C36"></rect><rect x="4" y="3" width="1" height="1" fill="#C77C36"></rect><rect x="7" y="3" width="2" height="1" fill="#C77C36"></rect><rect x="11" y="3" width="2" height="1" fill="#C77C36"></rect><rect x="3" y="4" width="2" height="1" fill="#C77C36"></rect><rect x="7" y="4" width="2" height="1" fill="#C77C36"></rect><rect x="11" y="4" width="2" height="1" fill="#C77C36"></rect><rect x="5" y="3" width="2" height="2" fill="#2B1608"></rect><rect x="9" y="3" width="2" height="2" fill="#2B1608"></rect><rect x="3" y="5" width="10" height="1" fill="#C77C36"></rect><rect x="3" y="6" width="10" height="3" fill="#C77C36"></rect><rect x="3" y="9" width="10" height="1" fill="#A9651F"></rect><rect x="1" y="4" width="2" height="2" fill="#C77C36"></rect><rect x="13" y="4" width="2" height="2" fill="#C77C36"></rect><rect x="5" y="10" width="2" height="1" fill="#C77C36"></rect><rect x="4" y="11" width="3" height="1" fill="#A9651F"></rect><rect x="13" y="9" width="3" height="1" fill="#A9651F"></rect></g>
<g transform="translate(198 0)"><rect x="8" y="2" width="6" height="1" fill="#C77C36"></rect><rect x="7" y="3" width="8" height="1" fill="#C77C36"></rect><rect x="6" y="4" width="1" height="1" fill="#C77C36"></rect><rect x="9" y="4" width="2" height="1" fill="#C77C36"></rect><rect x="13" y="4" width="2" height="1" fill="#C77C36"></rect><rect x="5" y="5" width="2" height="1" fill="#C77C36"></rect><rect x="9" y="5" width="2" height="1" fill="#C77C36"></rect><rect x="13" y="5" width="2" height="1" fill="#C77C36"></rect><rect x="7" y="4" width="2" height="2" fill="#2B1608"></rect><rect x="11" y="4" width="2" height="2" fill="#2B1608"></rect><rect x="4" y="6" width="10" height="1" fill="#C77C36"></rect><rect x="4" y="7" width="10" height="3" fill="#C77C36"></rect><rect x="4" y="10" width="10" height="1" fill="#A9651F"></rect><rect x="2" y="6" width="2" height="2" fill="#C77C36"></rect><rect x="14" y="6" width="2" height="2" fill="#C77C36"></rect><rect x="4" y="11" width="3" height="1" fill="#A9651F"></rect><rect x="11" y="11" width="3" height="1" fill="#A9651F"></rect></g>
</svg>